<svg xmlns="http://www.w3.org/2000/svg" viewBox="0 0 13.8 13.79"><defs><style>.cls-1,.cls-2,.cls-4{fill:none;stroke:#2b2a2a;}.cls-2{stroke-linecap:round;stroke-width:0.4px;}.cls-3{fill:#2a2b2b;}.cls-4{stroke-width:0.3px;}.cls-5{fill:#201f1f;}</style></defs><title>Element 5</title><g id="Ebene_2" data-name="Ebene 2"><g id="Ebene_1-2" data-name="Ebene 1"><polyline class="cls-1" points="0.5 4.74 0.5 0.5 4.59 0.5"/><polyline class="cls-1" points="9.21 0.58 13.3 0.58 13.3 4.67"/><polyline class="cls-1" points="13.3 9.04 13.3 13.29 9.21 13.29"/><polyline class="cls-1" points="4.59 13.29 0.5 13.29 0.5 9.04"/><line class="cls-2" x1="3.04" y1="6.08" x2="3.04" y2="9.83"/><line class="cls-2" x1="10.77" y1="6.08" x2="10.77" y2="9.83"/><rect class="cls-3" x="2.84" y="8.84" width="8.13" height="1.23"/><rect class="cls-3" x="2.84" y="7.24" width="8.13" height="1.23"/><rect class="cls-3" x="4.61" y="5.27" width="0.88" height="1.77"/><rect class="cls-3" x="4.83" y="3.71" width="0.44" height="0.5"/><path class="cls-4" d="M6.46,5.26H4.05V4.39h1.7a.72.72,0,0,0,.72.72v.16Z"/><path class="cls-5" d="M8.37,6V7.08h.88V6A1.1,1.1,0,0,0,10,4.89a1.13,1.13,0,0,0-.91-1V5H8.55V3.86a1.16,1.16,0,0,0-.84,1.06A1.13,1.13,0,0,0,8.37,6Z"/></g></g></svg>