<?xml version="1.0" encoding="UTF-8"?>
<svg width="21px" height="21px" viewBox="0 0 21 21" version="1.1" xmlns="http://www.w3.org/2000/svg" xmlns:xlink="http://www.w3.org/1999/xlink">
    <!-- Generator: Sketch 55.2 (78181) - https://sketchapp.com -->
    <title>Group 5</title>
    <desc>Created with Sketch.</desc>
    <g id="Produkt1" stroke="none" stroke-width="1" fill="none" fill-rule="evenodd">
        <g id="Tablet" transform="translate(-543.000000, -523.000000)">
            <g id="Group-5" transform="translate(543.000000, 523.000000)">
                <circle id="Oval" fill="#FBFFFA" cx="10.5" cy="10.5" r="10.5"></circle>
                <path d="M6,8.54352421 C6.49457847,9.61874878 6.7418677,10.4453375 6.7418677,11.0232903 C6.7418677,11.6012432 6.49457847,12.4770629 6,13.6507494 C7.0978118,13.6902673 7.92867127,13.8566457 8.4925784,14.1498847 C9.05648554,14.4431237 9.73151839,15.0598288 10.5176769,16 C11.3063684,15.0447157 11.9660435,14.4280106 12.4967021,14.1498847 C13.0273608,13.8717588 13.8617934,13.7053804 15,13.6507494 C14.5071744,12.4755683 14.2607616,11.5997486 14.2607616,11.0232903 C14.2607616,10.4468321 14.5071744,9.62024336 15,8.54352421 C13.865613,8.41614872 13.0311803,8.20141005 12.4967021,7.89930822 C11.9622239,7.5972064 11.2966566,6.96410365 10.5,6 C9.69365451,6.96554081 9.02451398,7.59864355 8.4925784,7.89930822 C7.96064282,8.1999729 7.12978336,8.41471156 6,8.54352421 Z" id="Path-2" fill="#3B3838"></path>
                <circle id="Oval" fill="#FBFFFA" cx="11" cy="11" r="2"></circle>
            </g>
        </g>
    </g>
</svg>