<svg xmlns="http://www.w3.org/2000/svg" viewBox="0 0 39.37 26.64"><defs><style>.cls-1{fill:#fff;}</style></defs><title>Element 1</title><g id="Ebene_2" data-name="Ebene 2"><g id="Ebene_1-2" data-name="Ebene 1"><path class="cls-1" d="M19.64,26V20.39a1.61,1.61,0,0,1,.47-1.14l3.08-3.11a.72.72,0,0,0,.2-.49V0h2V15.8a.69.69,0,0,0,.21.49l3,2.95a1.63,1.63,0,0,1,.5,1.17V26l-.6.6H20.24Z"/><path class="cls-1" d="M37.35.14V23.25a1.42,1.42,0,0,0,.06.42l.8,2.58a.16.16,0,0,0,.31,0l.78-2.58a1.14,1.14,0,0,0,.07-.41V.14Z"/><path class="cls-1" d="M4.53,0h-2V19.51a.7.7,0,0,1-.13.39l-2.09,3a1.62,1.62,0,0,0-.3.95v2.06l.71.71H6.24L7,25.93V23.86a1.72,1.72,0,0,0-.28-.93l-2-3a.68.68,0,0,1-.12-.38Z"/></g></g></svg>